{"title":"SAGAR ALIAS JACKY MALAYALAM MOVIE SONG-VENNILAVE-UPSCALED 1280*7","uid":5868627,"size":127093671,"categoryP":"video","categoryS":"music_videos","magnet":"?xt=urn:btih:8d2169693f6e20edbe6ab0f8977ed84eb001c6a2&amp;dn=SAGAR+ALIAS+JACKY+MALAYALAM+MOVIE+SONG-VENNILAVE-UPSCALED+1280%2A7&amp;tr=udp%3A%2F%2Ftracker.openbittorrent.com%3A80&amp;tr=udp%3A%2F%2Fopen.demonii.com%3A1337&amp;tr=udp%3A%2F%2Ftracker.coppersurfer.tk%3A6969&amp;tr=udp%3A%2F%2Fexodus.desync.com%3A6969","seeders":0,"leechers":1,"uploader":"a94965","files":14,"time":1286305463,"description":"General\nFormat                           : MPEG-4\nFormat profile                   : Base Media\nCodec ID                         : isom\nFile size                        : 120 MiB\nDuration                         : 4mn 33s\nOverall bit rate                 : 3 683 Kbps\n\nVideo\nID                               : 1\nFormat                           : AVC\nFormat/Info                      : Advanced Video Codec\nFormat profile                   : &lt;a class=&quot;__cf_email__&quot; href=&quot;/cdn-cgi/l/email-protection&quot; data-cfemail=&quot;9edcffedfbf2f7f0fbded2adb0ac&quot;&gt;[email&amp;#160;protected]&lt;/a&gt;&lt;script cf-hash='f9e31' type=&quot;text/javascript&quot;&gt;\n/* &lt;![CDATA[ */!function(){try{var t=&quot;currentScript&quot;in document?document.currentScript:function(){for(var t=document.getElementsByTagName(&quot;script&quot;),e=t.length;e--;)if(t[e].getAttribute(&quot;cf-hash&quot;))return t[e]}();if(t&amp;&amp;t.previousSibling){var e,r,n,i,c=t.previousSibling,a=c.getAttribute(&quot;data-cfemail&quot;);if(a){for(e=&quot;&quot;,r=parseInt(a.substr(0,2),16),n=2;a.length-n;n+=2)i=parseInt(a.substr(n,2),16)^r,e+=String.fromCharCode(i);e=document.createTextNode(e),c.parentNode.replaceChild(e,c)}}}catch(u){}}();/* ]]&gt; */&lt;/script&gt;\nFormat settings, CABAC           : No\nFormat settings, ReFrames        : 1 frame\nCodec ID                         : avc1\nCodec ID/Info                    : Advanced Video Coding\nDuration                         : 4mn 33s\nBit rate mode                    : Variable\nBit rate                         : 3 550 Kbps\nWidth                            : 1 280 pixels\nHeight                           : 768 pixels\nDisplay aspect ratio             : 1.667\nFrame rate mode                  : Constant\nFrame rate                       : 29.970 fps\nColor space                      : YUV\nChroma subsampling               : 4:2:0\nBit depth                        : 8 bits\nScan type                        : Progressive\nBits/(Pixel*Frame)               : 0.120\nStream size                      : 116 MiB (96%)\n\nAudio\nID                               : 2\nFormat                           : AAC\nFormat/Info                      : Advanced Audio Codec\nFormat version                   : Version 4\nFormat profile                   : LC\nFormat settings, SBR             : No\nCodec ID                         : 40\nDuration                         : 4mn 32s\nBit rate mode                    : Variable\nBit rate                         : 128 Kbps\nChannel(s)                       : 2 channels\nChannel positions                : Front: L R\nSampling rate                    : 48.0 KHz\nStream size                      : 4.16 MiB (3%)\n\n","torrent":{"xt":"urn:btih:8d2169693f6e20edbe6ab0f8977ed84eb001c6a2","amp;dn":"SAGAR+ALIAS+JACKY+MALAYALAM+MOVIE+SONG-VENNILAVE-UPSCALED+1280%2A7","amp;tr":["udp%3A%2F%2Ftracker.openbittorrent.com%3A80","udp%3A%2F%2Fopen.demonii.com%3A1337","udp%3A%2F%2Ftracker.coppersurfer.tk%3A6969","udp%3A%2F%2Fexodus.desync.com%3A6969"],"infoHash":"8d2169693f6e20edbe6ab0f8977ed84eb001c6a2","infoHashBuffer":{"type":"Buffer","data":[141,33,105,105,63,110,32,237,190,106,176,248,151,126,216,78,176,1,198,162]},"announce":[],"urlList":[]}}